<svg version="1" xmlns="http://www.w3.org/2000/svg" width="2234.667" height="2234.667" viewBox="0 0 1676.000000 1676.000000"><path d="M274 812.2c0 268.9.3 488.8.8 488.7 1.6-.1 34.1-38.5 59.7-70.4 44.2-55.2 80.3-104.9 167-229.5 53.5-77 75-107.4 98.3-139.5 61-83.7 106-138.2 151.2-183.5 45.3-45.4 80.7-72.4 121.5-92.5 51.2-25.4 99.7-30.6 148-16 84.3 25.6 166.2 108.9 260.7 265.1 39.6 65.4 74.6 130.1 144.7 267.4l15.1 29.5.2-404 .3-404H274v488.7zM1441 1310.7c0 98.6.3 179.4.8 179.4 2.4.4 233.2.3 233.2-.1-.1-.3-3.1-2.6-6.8-5.2-20.8-14.8-47.6-44.2-73.6-81.2-37.4-52.9-71.6-113.1-143-251.6l-10.6-20.5v179.2zM265 1311.6c-23.4 26-69.1 69.1-96.5 90.9-49.6 39.6-105.3 69.6-156 84.3-5.2 1.5-9.5 2.9-9.5 3.2 0 .3 61 .5 135.5.5H274v-94.2c0-51.9-.1-94.3-.2-94.2-.2 0-4.1 4.3-8.8 9.5z"/></svg>